<svg width="237" height="48" viewBox="0 0 237 48" fill="none" xmlns="http://www.w3.org/2000/svg">
<path d="M16.6804 16.2234L0 32.9211L14.7269 47.6616C15.449 48.3844 16.6824 47.8726 16.6824 46.8512V16.2234H16.6804Z" fill="#FFBB00"/>
<path d="M33.3628 31.7742C33.3628 32.4074 32.8496 32.9211 32.2169 32.9211H16.6804H0V16.6973C0 16.3926 0.121348 16.1019 0.336194 15.8869L15.8727 0.336006C16.3203 -0.112002 17.0464 -0.112002 17.494 0.336006L33.0306 15.8869C33.2454 16.1019 33.3668 16.3946 33.3668 16.6973V31.7742H33.3628Z" fill="url(#paint0_linear_2849_1831)"/>
<path d="M16.6804 32.9211H0V16.6973C0 16.3926 0.121348 16.1019 0.336194 15.8869L15.7932 0.413668C16.1214 0.0851287 16.6804 0.318093 16.6804 0.78203V32.9211Z" fill="url(#paint1_linear_2849_1831)"/>
<path d="M64.8238 16.5838C64.8238 21.3844 61.066 24.5722 56.1265 24.5722H48.7183V32.9191H44.8173V8.59528H56.2359C61.1018 8.59528 64.8238 11.7831 64.8238 16.5838ZM60.8153 16.6554C60.8153 14.0032 58.5952 12.249 55.9475 12.249H48.7183V20.9902H55.9475C58.5972 20.9902 60.8153 19.2718 60.8153 16.6554Z" fill="#212B30"/>
<path d="M67.4039 14.3636H71.2692V17.9457C72.1286 15.6897 74.9196 13.826 78.8564 13.826V17.0138C74.1676 17.0138 71.3408 19.7019 71.2692 23.6424V32.9211H67.4039V14.3636Z" fill="#212B30"/>
<path d="M78.8982 23.6762C78.8982 18.2683 83.408 13.8599 89.0278 13.8599C94.6476 13.8599 99.1573 18.2663 99.1573 23.6762C99.1573 29.0862 94.6476 33.4567 89.0278 33.4567C83.408 33.4567 78.8982 29.0862 78.8982 23.6762ZM95.4353 23.6762C95.4353 20.1658 92.6802 17.3344 89.0298 17.3344C85.3794 17.3344 82.6222 20.1638 82.6222 23.6762C82.6222 27.1528 85.3774 29.9822 89.0298 29.9822C92.6782 29.9822 95.4353 27.1528 95.4353 23.6762Z" fill="#212B30"/>
<path d="M102.119 14.3995H105.985V16.1915C107.274 14.9012 109.528 13.8618 112.213 13.8618C117.869 13.8618 121.877 18.2683 121.877 23.6782C121.877 29.0881 117.869 33.4587 112.213 33.4587C109.17 33.4587 107.202 32.276 105.985 30.9519V40.5173H102.119V14.3995ZM118.12 23.6762C118.12 20.1658 115.758 17.2986 112.285 17.2986C108.813 17.2986 105.77 19.6282 105.77 23.6762C105.77 27.6904 108.813 30.018 112.285 30.018C115.756 30.018 118.12 27.1886 118.12 23.6762Z" fill="#212B30"/>
<path d="M124.905 14.3636H128.77V17.9457C129.63 15.6897 132.421 13.826 136.358 13.826V17.0138C131.669 17.0138 128.842 19.7019 128.77 23.6424V32.9211H124.905V14.3636Z" fill="#212B30"/>
<path d="M159.959 8.59528V32.9211H156.058V21.7787H143.424V32.9211H139.523V8.59528H143.424V18.1249H156.058V8.59528H159.959Z" fill="#212B30"/>
<path d="M163.372 23.6762C163.372 18.2683 167.882 13.8599 173.502 13.8599C179.122 13.8599 183.632 18.2663 183.632 23.6762C183.632 29.0862 179.122 33.4567 173.502 33.4567C167.884 33.4587 163.372 29.0862 163.372 23.6762ZM179.91 23.6762C179.91 20.1658 177.154 17.3344 173.504 17.3344C169.854 17.3344 167.096 20.1638 167.096 23.6762C167.096 27.1528 169.852 29.9822 173.504 29.9822C177.154 29.9822 179.91 27.1528 179.91 23.6762Z" fill="#212B30"/>
<path d="M214.796 21.5278V32.9191H210.931V21.92C210.931 18.9472 209.857 17.2627 207.316 17.2627C204.989 17.2627 202.663 19.0189 202.663 22.4935V32.9191H198.798V21.92C198.798 18.9472 197.724 17.2627 195.184 17.2627C193.035 17.2627 190.853 18.768 190.566 21.7767V32.9191H186.701V14.3995H190.566V16.6196C190.781 16.1178 192.035 13.826 195.757 13.826C198.37 13.826 200.41 14.8654 201.591 16.8705C202.451 15.2577 204.382 13.826 207.891 13.826C212.039 13.826 214.796 16.4404 214.796 21.5278Z" fill="#212B30"/>
<path d="M217.623 23.6404C217.623 18.0871 221.882 13.8599 227.609 13.8599C232.979 13.8599 236.092 18.3021 236.092 22.7802V24.5722H221.309C221.739 27.4395 223.744 30.018 227.932 30.018C232.477 30.018 235.232 28.0846 235.268 28.0846V31.5592C235.268 31.5592 233.263 33.4587 227.86 33.4587C221.347 33.4587 217.623 28.9786 217.623 23.6404ZM232.227 21.5636C232.083 20.13 231.152 17.0138 227.108 17.0138C223.064 17.0138 221.703 20.13 221.488 21.5636H232.227Z" fill="#212B30"/>
<path d="M123.642 39.5417L121.044 47.2554H120.184L117.929 40.6766L115.659 47.2554H114.811L112.213 39.5417H113.051L115.275 46.1762L117.576 39.5417H118.336L120.604 46.208L122.86 39.5417H123.642Z" fill="#7A8083"/>
<path d="M129.813 42.0485C130.242 42.4707 130.457 43.0859 130.457 43.8943V47.2554H129.676V43.972C129.676 43.3687 129.524 42.9107 129.224 42.5941C128.924 42.2775 128.494 42.1202 127.935 42.1202C127.31 42.1202 126.817 42.3054 126.455 42.6778C126.093 43.0481 125.91 43.5618 125.91 44.2149V47.2554H125.128V39.0778H125.91V42.4727C126.123 42.1342 126.417 41.8733 126.791 41.6901C127.165 41.507 127.595 41.4154 128.08 41.4154C128.804 41.4154 129.383 41.6264 129.813 42.0485Z" fill="#7A8083"/>
<path d="M137.647 44.5992H132.803C132.846 45.2025 133.077 45.6884 133.497 46.0587C133.915 46.4291 134.444 46.6163 135.082 46.6163C135.443 46.6163 135.773 46.5525 136.073 46.4231C136.374 46.2957 136.634 46.1065 136.855 45.8556L137.295 46.3634C137.038 46.672 136.718 46.907 136.332 47.0682C135.946 47.2295 135.522 47.3112 135.061 47.3112C134.466 47.3112 133.939 47.1837 133.481 46.9309C133.022 46.678 132.663 46.3275 132.407 45.8775C132.15 45.4295 132.021 44.9218 132.021 44.3563C132.021 43.7908 132.144 43.2831 132.389 42.8351C132.634 42.3871 132.972 42.0386 133.401 41.7877C133.831 41.5388 134.315 41.4134 134.85 41.4134C135.385 41.4134 135.866 41.5388 136.292 41.7877C136.718 42.0366 137.052 42.3851 137.295 42.8291C137.537 43.2731 137.659 43.7829 137.659 44.3563L137.647 44.5992ZM133.445 42.622C133.067 42.9784 132.852 43.4424 132.801 44.0158H136.907C136.855 43.4424 136.64 42.9784 136.262 42.622C135.884 42.2656 135.413 42.0884 134.848 42.0884C134.293 42.0884 133.823 42.2656 133.445 42.622Z" fill="#7A8083"/>
<path d="M140.822 41.7121C141.184 41.513 141.635 41.4154 142.17 41.4154V42.176L141.983 42.1641C141.375 42.1641 140.897 42.3512 140.553 42.7256C140.209 43.0999 140.036 43.6256 140.036 44.3006V47.2534H139.254V41.4572H140.002V42.5922C140.185 42.2059 140.46 41.9112 140.822 41.7121Z" fill="#7A8083"/>
<path d="M148.568 44.5992H143.724C143.768 45.2025 143.999 45.6884 144.418 46.0587C144.836 46.4291 145.365 46.6163 146.004 46.6163C146.364 46.6163 146.694 46.5525 146.994 46.4231C147.295 46.2957 147.555 46.1065 147.776 45.8556L148.216 46.3634C147.959 46.672 147.639 46.907 147.253 47.0682C146.867 47.2295 146.443 47.3112 145.982 47.3112C145.387 47.3112 144.86 47.1837 144.402 46.9309C143.943 46.678 143.585 46.3275 143.328 45.8775C143.072 45.4295 142.942 44.9218 142.942 44.3563C142.942 43.7908 143.066 43.2831 143.31 42.8351C143.555 42.3871 143.893 42.0386 144.323 41.7877C144.752 41.5388 145.236 41.4134 145.771 41.4134C146.306 41.4134 146.788 41.5388 147.213 41.7877C147.639 42.0366 147.973 42.3851 148.216 42.8291C148.459 43.2731 148.58 43.7829 148.58 44.3563L148.568 44.5992ZM144.369 42.622C143.991 42.9784 143.776 43.4424 143.724 44.0158H147.83C147.778 43.4424 147.563 42.9784 147.185 42.622C146.807 42.2656 146.336 42.0884 145.771 42.0884C145.214 42.0884 144.745 42.2656 144.369 42.622Z" fill="#7A8083"/>
<path d="M154.627 41.7121C154.989 41.513 155.441 41.4154 155.976 41.4154V42.176L155.789 42.1641C155.18 42.1641 154.703 42.3512 154.359 42.7256C154.015 43.0999 153.842 43.6256 153.842 44.3006V47.2534H153.06V41.4572H153.808V42.5922C153.991 42.2059 154.265 41.9112 154.627 41.7121Z" fill="#7A8083"/>
<path d="M162.374 44.5992H157.53C157.574 45.2025 157.804 45.6884 158.224 46.0587C158.642 46.4291 159.171 46.6163 159.81 46.6163C160.17 46.6163 160.5 46.5525 160.8 46.4231C161.101 46.2957 161.361 46.1065 161.582 45.8556L162.022 46.3634C161.765 46.672 161.445 46.907 161.059 47.0682C160.673 47.2295 160.249 47.3112 159.788 47.3112C159.193 47.3112 158.666 47.1837 158.208 46.9309C157.749 46.678 157.391 46.3275 157.134 45.8775C156.877 45.4295 156.748 44.9218 156.748 44.3563C156.748 43.7908 156.871 43.2831 157.116 42.8351C157.361 42.3871 157.699 42.0386 158.129 41.7877C158.558 41.5388 159.042 41.4134 159.577 41.4134C160.112 41.4134 160.593 41.5388 161.019 41.7877C161.445 42.0366 161.779 42.3851 162.022 42.8291C162.264 43.2731 162.386 43.7829 162.386 44.3563L162.374 44.5992ZM158.174 42.622C157.796 42.9784 157.582 43.4424 157.53 44.0158H161.636C161.584 43.4424 161.369 42.9784 160.991 42.622C160.613 42.2656 160.142 42.0884 159.577 42.0884C159.02 42.0884 158.55 42.2656 158.174 42.622Z" fill="#7A8083"/>
<path d="M167.582 41.9828C167.986 42.3611 168.187 42.9207 168.187 43.6634V47.2554H167.439V46.3514C167.264 46.6521 167.003 46.887 166.663 47.0563C166.321 47.2255 165.915 47.3091 165.445 47.3091C164.799 47.3091 164.286 47.1558 163.904 46.8472C163.522 46.5386 163.331 46.1304 163.331 45.6246C163.331 45.1328 163.508 44.7366 163.864 44.4339C164.22 44.1333 164.787 43.9819 165.565 43.9819H167.403V43.6295C167.403 43.1297 167.264 42.7494 166.985 42.4886C166.707 42.2277 166.299 42.0983 165.764 42.0983C165.396 42.0983 165.043 42.1581 164.707 42.2795C164.369 42.401 164.081 42.5682 163.838 42.7813L163.486 42.1979C163.78 41.949 164.132 41.7558 164.542 41.6204C164.952 41.485 165.386 41.4173 165.841 41.4173C166.597 41.4154 167.178 41.6045 167.582 41.9828ZM166.701 46.3912C167.017 46.1901 167.252 45.8974 167.405 45.5151V44.5673H165.589C164.598 44.5673 164.103 44.9118 164.103 45.6027C164.103 45.9412 164.232 46.208 164.488 46.4012C164.745 46.5963 165.105 46.6939 165.567 46.6939C166.006 46.6939 166.384 46.5923 166.701 46.3912Z" fill="#7A8083"/>
<path d="M170.311 39.0797H171.093V47.2574H170.311V39.0797Z" fill="#7A8083"/>
<path d="M181.201 44.5992H176.357C176.401 45.2025 176.631 45.6884 177.051 46.0587C177.469 46.4291 177.998 46.6163 178.637 46.6163C178.997 46.6163 179.327 46.5525 179.627 46.4231C179.928 46.2957 180.188 46.1065 180.409 45.8556L180.849 46.3634C180.592 46.672 180.272 46.907 179.886 47.0682C179.5 47.2295 179.076 47.3112 178.615 47.3112C178.02 47.3112 177.493 47.1837 177.035 46.9309C176.576 46.678 176.218 46.3275 175.961 45.8775C175.704 45.4295 175.575 44.9218 175.575 44.3563C175.575 43.7908 175.698 43.2831 175.943 42.8351C176.188 42.3871 176.526 42.0386 176.956 41.7877C177.385 41.5388 177.869 41.4134 178.404 41.4134C178.939 41.4134 179.42 41.5388 179.846 41.7877C180.272 42.0366 180.606 42.3851 180.849 42.8291C181.091 43.2731 181.213 43.7829 181.213 44.3563L181.201 44.5992ZM177.001 42.622C176.623 42.9784 176.408 43.4424 176.357 44.0158H180.463C180.411 43.4424 180.196 42.9784 179.818 42.622C179.44 42.2656 178.969 42.0884 178.404 42.0884C177.847 42.0884 177.377 42.2656 177.001 42.622Z" fill="#7A8083"/>
<path d="M183.011 47.1081C182.581 46.9727 182.245 46.8014 182.002 46.5963L182.355 45.9791C182.597 46.1702 182.902 46.3255 183.268 46.447C183.636 46.5685 184.018 46.6282 184.413 46.6282C184.943 46.6282 185.333 46.5466 185.587 46.3793C185.84 46.214 185.967 45.9811 185.967 45.6804C185.967 45.4674 185.897 45.3001 185.758 45.1786C185.619 45.0572 185.442 44.9656 185.229 44.9039C185.016 44.8421 184.734 44.7804 184.382 44.7227C183.912 44.6351 183.534 44.5455 183.248 44.4519C182.961 44.3603 182.717 44.205 182.516 43.9839C182.313 43.7629 182.213 43.4583 182.213 43.07C182.213 42.5862 182.414 42.1879 182.818 41.8793C183.222 41.5707 183.783 41.4174 184.503 41.4174C184.877 41.4174 185.251 41.4671 185.627 41.5667C186.001 41.6663 186.309 41.7957 186.552 41.959L186.21 42.5862C185.732 42.2556 185.163 42.0904 184.503 42.0904C184.004 42.0904 183.628 42.178 183.375 42.3552C183.122 42.5304 182.995 42.7634 182.995 43.0501C182.995 43.2711 183.067 43.4463 183.21 43.5797C183.353 43.7112 183.53 43.8087 183.743 43.8724C183.956 43.9342 184.25 43.9999 184.624 44.0656C185.086 44.1532 185.456 44.2428 185.736 44.3304C186.015 44.418 186.254 44.5693 186.452 44.7824C186.651 44.9954 186.751 45.2901 186.751 45.6645C186.751 46.1722 186.54 46.5744 186.118 46.8711C185.697 47.1678 185.112 47.3171 184.362 47.3171C183.89 47.3112 183.441 47.2435 183.011 47.1081Z" fill="#7A8083"/>
<path d="M191.241 46.903C191.094 47.0344 190.913 47.136 190.696 47.2056C190.479 47.2753 190.254 47.3112 190.019 47.3112C189.476 47.3112 189.059 47.1638 188.764 46.8711C188.47 46.5764 188.324 46.1623 188.324 45.6267V42.1223H187.29V41.4612H188.324V40.1948H189.106V41.4612H190.869V42.1223H189.106V45.5829C189.106 45.9273 189.192 46.1902 189.365 46.3714C189.538 46.5526 189.785 46.6422 190.109 46.6422C190.27 46.6422 190.425 46.6163 190.576 46.5645C190.728 46.5127 190.857 46.4391 190.966 46.3435L191.241 46.903Z" fill="#7A8083"/>
<path d="M196.427 41.9828C196.831 42.3611 197.032 42.9207 197.032 43.6634V47.2554H196.284V46.3514C196.109 46.6521 195.848 46.887 195.508 47.0563C195.166 47.2255 194.76 47.3091 194.29 47.3091C193.644 47.3091 193.131 47.1558 192.749 46.8472C192.367 46.5386 192.176 46.1304 192.176 45.6246C192.176 45.1328 192.353 44.7366 192.709 44.4339C193.065 44.1333 193.632 43.9819 194.41 43.9819H196.248V43.6295C196.248 43.1297 196.109 42.7494 195.83 42.4886C195.552 42.2277 195.144 42.0983 194.609 42.0983C194.241 42.0983 193.889 42.1581 193.552 42.2795C193.214 42.401 192.926 42.5682 192.683 42.7813L192.331 42.1979C192.625 41.949 192.977 41.7558 193.387 41.6204C193.799 41.485 194.231 41.4173 194.686 41.4173C195.442 41.4154 196.023 41.6045 196.427 41.9828ZM195.546 46.3912C195.862 46.1901 196.097 45.8974 196.25 45.5151V44.5673H194.434C193.443 44.5673 192.948 44.9118 192.948 45.6027C192.948 45.9412 193.077 46.208 193.334 46.4012C193.59 46.5963 193.95 46.6939 194.412 46.6939C194.853 46.6939 195.231 46.5923 195.546 46.3912Z" fill="#7A8083"/>
<path d="M202.206 46.903C202.059 47.0344 201.878 47.136 201.661 47.2056C201.444 47.2753 201.219 47.3112 200.984 47.3112C200.441 47.3112 200.024 47.1638 199.729 46.8711C199.435 46.5764 199.29 46.1623 199.29 45.6267V42.1223H198.255V41.4612H199.29V40.1948H200.071V41.4612H201.834V42.1223H200.071V45.5829C200.071 45.9273 200.157 46.1902 200.33 46.3714C200.503 46.5526 200.75 46.6422 201.074 46.6422C201.235 46.6422 201.39 46.6163 201.542 46.5645C201.693 46.5127 201.822 46.4391 201.931 46.3435L202.206 46.903Z" fill="#7A8083"/>
<path d="M208.46 44.5992H203.616C203.66 45.2025 203.891 45.6884 204.311 46.0587C204.728 46.4291 205.258 46.6163 205.896 46.6163C206.256 46.6163 206.586 46.5525 206.887 46.4231C207.187 46.2957 207.448 46.1065 207.669 45.8556L208.108 46.3634C207.852 46.672 207.531 46.907 207.145 47.0682C206.759 47.2295 206.336 47.3112 205.874 47.3112C205.279 47.3112 204.752 47.1837 204.295 46.9309C203.835 46.678 203.477 46.3275 203.22 45.8775C202.964 45.4295 202.835 44.9218 202.835 44.3563C202.835 43.7908 202.958 43.2831 203.203 42.8351C203.447 42.3871 203.785 42.0386 204.215 41.7877C204.645 41.5388 205.128 41.4134 205.663 41.4134C206.198 41.4134 206.68 41.5388 207.106 41.7877C207.531 42.0366 207.866 42.3851 208.108 42.8291C208.351 43.2731 208.472 43.7829 208.472 44.3563L208.46 44.5992ZM204.261 42.622C203.883 42.9784 203.668 43.4424 203.616 44.0158H207.722C207.671 43.4424 207.456 42.9784 207.078 42.622C206.7 42.2656 206.228 42.0884 205.663 42.0884C205.106 42.0884 204.637 42.2656 204.261 42.622Z" fill="#7A8083"/>
<path d="M212.952 39.0797H213.734V47.2574H212.952V39.0797Z" fill="#7A8083"/>
<path d="M215.902 40.0275C215.793 39.918 215.737 39.7846 215.737 39.6313C215.737 39.4839 215.793 39.3565 215.902 39.245C216.012 39.1355 216.147 39.0797 216.31 39.0797C216.471 39.0797 216.609 39.1335 216.718 39.239C216.827 39.3466 216.883 39.472 216.883 39.6193C216.883 39.7806 216.827 39.916 216.718 40.0275C216.609 40.137 216.471 40.1928 216.31 40.1928C216.149 40.1928 216.014 40.137 215.902 40.0275ZM215.914 41.4592H216.696V47.2554H215.914V41.4592Z" fill="#7A8083"/>
<path d="M223.742 41.4592L221.166 47.2554H220.362L217.796 41.4592H218.61L220.778 46.3952L222.968 41.4592H223.742Z" fill="#7A8083"/>
<path d="M229.72 44.5992H224.876C224.92 45.2025 225.151 45.6884 225.57 46.0587C225.988 46.4291 226.517 46.6163 227.156 46.6163C227.516 46.6163 227.846 46.5525 228.147 46.4231C228.447 46.2957 228.708 46.1065 228.928 45.8556L229.368 46.3634C229.111 46.672 228.791 46.907 228.405 47.0682C228.019 47.2295 227.596 47.3112 227.134 47.3112C226.539 47.3112 226.012 47.1837 225.555 46.9309C225.095 46.678 224.737 46.3275 224.48 45.8775C224.224 45.4295 224.094 44.9218 224.094 44.3563C224.094 43.7908 224.218 43.2831 224.462 42.8351C224.707 42.3871 225.045 42.0386 225.475 41.7877C225.905 41.5388 226.388 41.4134 226.923 41.4134C227.458 41.4134 227.94 41.5388 228.365 41.7877C228.791 42.0366 229.125 42.3851 229.368 42.8291C229.611 43.2731 229.732 43.7829 229.732 44.3563L229.72 44.5992ZM225.521 42.622C225.143 42.9784 224.928 43.4424 224.876 44.0158H228.982C228.93 43.4424 228.716 42.9784 228.338 42.622C227.96 42.2656 227.488 42.0884 226.923 42.0884C226.366 42.0884 225.899 42.2656 225.521 42.622Z" fill="#7A8083"/>
<path d="M231.532 47.1081C231.103 46.9727 230.767 46.8014 230.524 46.5963L230.876 45.9791C231.119 46.1702 231.423 46.3255 231.789 46.447C232.157 46.5685 232.539 46.6282 232.935 46.6282C233.464 46.6282 233.854 46.5466 234.109 46.3793C234.361 46.214 234.488 45.9811 234.488 45.6804C234.488 45.4674 234.419 45.3001 234.28 45.1786C234.14 45.0572 233.963 44.9656 233.75 44.9039C233.538 44.8421 233.255 44.7804 232.903 44.7227C232.434 44.6351 232.056 44.5455 231.769 44.4519C231.483 44.3603 231.238 44.205 231.037 43.9839C230.834 43.7629 230.735 43.4583 230.735 43.07C230.735 42.5862 230.936 42.1879 231.339 41.8793C231.743 41.5707 232.304 41.4174 233.024 41.4174C233.398 41.4174 233.772 41.4671 234.148 41.5667C234.522 41.6663 234.831 41.7957 235.073 41.959L234.731 42.5862C234.254 42.2556 233.685 42.0904 233.024 42.0904C232.525 42.0904 232.149 42.178 231.896 42.3552C231.644 42.5304 231.516 42.7634 231.516 43.0501C231.516 43.2711 231.588 43.4463 231.731 43.5797C231.875 43.7112 232.052 43.8087 232.264 43.8724C232.477 43.9342 232.772 43.9999 233.146 44.0656C233.607 44.1532 233.977 44.2428 234.258 44.3304C234.536 44.418 234.775 44.5693 234.974 44.7824C235.173 44.9954 235.272 45.2901 235.272 45.6645C235.272 46.1722 235.061 46.5744 234.64 46.8711C234.218 47.1678 233.633 47.3171 232.883 47.3171C232.41 47.3112 231.96 47.2435 231.532 47.1081Z" fill="#7A8083"/>
<defs>
<linearGradient id="paint0_linear_2849_1831" x1="16.6811" y1="32.8286" x2="16.6811" y2="0.439983" gradientUnits="userSpaceOnUse">
<stop stop-color="#00D188"/>
<stop offset="0.5536" stop-color="#00D4C8"/>
<stop offset="1" stop-color="#00D6F7"/>
</linearGradient>
<linearGradient id="paint1_linear_2849_1831" x1="8.34014" y1="32.9204" x2="8.34014" y2="0.260907" gradientUnits="userSpaceOnUse">
<stop stop-color="#009902"/>
<stop offset="0.3056" stop-color="#00AD50"/>
<stop offset="0.7869" stop-color="#00CAC7"/>
<stop offset="1" stop-color="#00D6F6"/>
</linearGradient>
</defs>
</svg>
